<svg width="18" height="18" viewBox="0 0 18 18" fill="none" xmlns="http://www.w3.org/2000/svg">
<path d="M16.3834 5.97455L10.6084 1.35788C9.71672 0.641215 8.27506 0.641215 7.39172 1.34955L1.61672 5.97455C0.966725 6.49122 0.550058 7.58288 0.691725 8.39955L1.80006 15.0329C2.00006 16.2162 3.13339 17.1745 4.33339 17.1745H13.6667C14.8584 17.1745 16.0001 16.2079 16.2001 15.0329L17.3084 8.39955C17.4417 7.58288 17.0251 6.49122 16.3834 5.97455ZM9.00006 11.9162C7.85006 11.9162 6.91672 10.9829 6.91672 9.83288C6.91672 8.68288 7.85006 7.74955 9.00006 7.74955C10.1501 7.74955 11.0834 8.68288 11.0834 9.83288C11.0834 10.9829 10.1501 11.9162 9.00006 11.9162Z" fill="currentColor"/>
</svg>
